<?xml version="1.0" standalone="no"?>
<!DOCTYPE svg PUBLIC "-//W3C//DTD SVG 20010904//EN"
 "http://www.w3.org/TR/2001/REC-SVG-20010904/DTD/svg10.dtd">
<svg version="1.0" xmlns="http://www.w3.org/2000/svg"
 width="458.000000pt" height="458.000000pt" viewBox="0 0 458.000000 458.000000"
 preserveAspectRatio="xMidYMid meet">
<metadata>
Created by potrace 1.14, written by Peter Selinger 2001-2017
</metadata>
<g transform="translate(0.000000,458.000000) scale(0.100000,-0.100000)"
fill="#000000" stroke="none">
<path d="M2089 4576 c-2 -2 -33 -7 -69 -10 -36 -4 -74 -9 -85 -11 -11 -2 -36
-7 -55 -9 -19 -3 -75 -15 -123 -26 -304 -72 -631 -232 -897 -439 -76 -59 -263
-238 -315 -301 -204 -250 -357 -531 -446 -820 -38 -120 -76 -311 -86 -426 -9
-110 -9 -385 0 -479 8 -77 11 -97 33 -225 10 -54 68 -250 101 -340 49 -132
142 -314 231 -450 41 -63 77 -117 81 -120 3 -3 24 -27 46 -55 138 -174 330
-350 525 -482 120 -81 301 -170 481 -237 71 -26 265 -82 314 -91 17 -2 41 -7
55 -10 27 -6 64 -11 155 -22 75 -10 453 -9 520 0 230 33 336 59 510 122 158
57 441 199 453 227 2 5 8 8 14 8 12 0 127 82 213 153 33 27 110 99 170 160
178 182 315 374 425 602 82 168 123 279 166 450 11 46 25 112 30 143 3 20 7
39 9 42 2 3 7 35 10 70 4 36 10 97 15 135 7 65 5 295 -4 375 -33 291 -125 596
-256 847 -52 99 -171 290 -190 303 -4 3 -11 12 -16 22 -24 43 -244 276 -345
363 -48 43 -162 125 -244 177 -261 166 -563 281 -880 333 -89 15 -535 32 -546
21z m335 -1736 c185 -46 336 -184 400 -365 24 -67 32 -208 16 -287 -31 -160
-124 -290 -273 -381 -79 -48 -141 -67 -244 -74 -104 -7 -188 9 -278 53 -195
95 -311 271 -320 485 -12 285 178 525 461 582 80 16 131 13 238 -13z"/>
</g>
</svg>
